<svg id="Layer_1" data-name="Layer 1" xmlns="http://www.w3.org/2000/svg" viewBox="0 0 400 240">
  <defs>
    <style>
      .cls-1 {
        fill: #22a466;
      }

      .cls-2 {
        fill: #6d6e71;
      }

      .cls-3 {
        fill: #1a8e5a;
      }

      .cls-4 {
        fill: #8eceaf;
      }

      .cls-5 {
        fill: #fff;
      }
    </style>
  </defs>
  <title>1</title>
  <path class="cls-1" d="M177,226.2A14,14,0,0,1,162.8,240H14.2A14,14,0,0,1,0,226.2V13.9A14,14,0,0,1,14.2.1h95.5L177,67.2Z"/>
  <path class="cls-2" d="M238.9,82.2H214v7.4h17.7c-.8,10.4-9.4,14.8-17.7,14.8a19.8,19.8,0,0,1,0-39.6,18.9,18.9,0,0,1,13.3,5.4l5.2-5.4a26.1,26.1,0,0,0-18.7-7.4,27.1,27.1,0,1,0-1,54.2h1.3c14.5,0,25.1-9.9,25.1-24.8C239.3,85.4,239.1,83.9,238.9,82.2Z"/>
  <path class="cls-2" d="M259.3,83.7A10.6,10.6,0,1,1,249.4,95v-.7A10.3,10.3,0,0,1,259,83.7Zm0-6.9a17.4,17.4,0,1,0,17.5,17.5,17.3,17.3,0,0,0-17-17.5Z"/>
  <path class="cls-2" d="M297.6,83.7a10.6,10.6,0,1,1-10.1,11.1v-.5a10.3,10.3,0,0,1,9.6-10.6Zm-.2-6.9a17.4,17.4,0,1,0,17.5,17.5,17.3,17.3,0,0,0-17-17.5Z"/>
  <path class="cls-2" d="M335.5,83.7c4.5,0,9.3,3.9,9.3,10.6s-4.7,10.6-9.4,10.6a9.8,9.8,0,0,1-9.6-10.1v-.3c0-6.9,4.9-10.8,9.8-10.8Zm-.7-6.9c-9.4,0-16.7,8.3-16.7,17.5a17.2,17.2,0,0,0,16.5,17.5,11.7,11.7,0,0,0,9.6-4.2V111c0,6.1-3.7,9.6-9.1,9.6a9.5,9.5,0,0,1-8.8-6.1l-6.7,2.9a17.1,17.1,0,0,0,15.7,10.3c9.3,0,16.5-5.9,16.5-18.2V78h-7.4v3A12.7,12.7,0,0,0,334.8,76.8Z"/>
  <path class="cls-2" d="M384.3,83.5a6.7,6.7,0,0,1,6.4,3.7l-15.7,6.6a9.9,9.9,0,0,1,9.3-10.3Zm-.2-6.7c-8.8,0-16.3,7.1-16.3,17.4A16.9,16.9,0,0,0,384,111.7h1a17.7,17.7,0,0,0,14.7-7.7l-5.9-4a9.5,9.5,0,0,1-8.6,4.7,9.1,9.1,0,0,1-8.6-5.2L400,89.6l-1.2-2.9A16.7,16.7,0,0,0,384.2,76.8Z"/>
  <rect class="cls-2" x="356.7" y="59.3" width="7.7" height="51.38"/>
  <path class="cls-2" d="M219.6,168.3a13,13,0,0,1-4.7,10.4,18.3,18.3,0,0,1-11.6,3.9,17.6,17.6,0,0,1-10.8-3.5,18.2,18.2,0,0,1-6.4-9.8l6.1-2.5a20.6,20.6,0,0,0,1.7,4,11,11,0,0,0,2.5,3,12.8,12.8,0,0,0,3.2,2,9.6,9.6,0,0,0,3.7.7,10.7,10.7,0,0,0,7.1-2.2,6.6,6.6,0,0,0,2.7-5.9,6.9,6.9,0,0,0-2.4-5.2,20.8,20.8,0,0,0-7.9-4,78.7,78.7,0,0,1-7.4-2.9c-5.2-2.7-7.7-6.6-7.7-11.8a11.9,11.9,0,0,1,4.4-9.3,16.9,16.9,0,0,1,10.8-3.9,15.5,15.5,0,0,1,9.8,2.9,14.4,14.4,0,0,1,5.6,7.1l-5.9,2.5a8.7,8.7,0,0,0-3.2-4.5,10.6,10.6,0,0,0-12.1.2,6,6,0,0,0-2.5,5.1,5.4,5.4,0,0,0,2,4.4,33.5,33.5,0,0,0,9.6,4.5,23.4,23.4,0,0,1,10.6,6.2A12.8,12.8,0,0,1,219.6,168.3Z"/>
  <path class="cls-2" d="M225.3,132.4h6.4v15.5l-.3,4.7h.3a11.7,11.7,0,0,1,4.4-4.2,13.3,13.3,0,0,1,6.2-1.7,12.3,12.3,0,0,1,9.4,3.5,14.7,14.7,0,0,1,3.4,10.1v21.2h-6.4v-20q0-9.1-8.1-9.1a8.6,8.6,0,0,0-6.6,3.2,11.3,11.3,0,0,0-2.7,7.6v18.2H225v-49Z"/>
  <path class="cls-2" d="M266.9,160.7h19.2a8.9,8.9,0,0,0-2.9-5.9,10.1,10.1,0,0,0-6.9-2.4,9,9,0,0,0-6.1,2.2A11.4,11.4,0,0,0,266.9,160.7ZM277,182.6a15.7,15.7,0,0,1-12.1-5.1,19,19,0,0,1-4.9-12.8,18.1,18.1,0,0,1,4.7-12.8,16.8,16.8,0,0,1,23.8-.3h0c3,3.2,4.4,7.7,4.4,13.5v.7H266.4a10.8,10.8,0,0,0,18.4,7.7,11.1,11.1,0,0,0,2-2.9l5.6,2.7a16,16,0,0,1-6.2,6.7A17.2,17.2,0,0,1,277,182.6Z"/>
  <path class="cls-2" d="M303.3,160.7h19.2a8.9,8.9,0,0,0-2.9-5.9,10.1,10.1,0,0,0-6.9-2.4,9,9,0,0,0-6.1,2.2A11.4,11.4,0,0,0,303.3,160.7Zm10.1,21.9a15.7,15.7,0,0,1-12.1-5.1,19,19,0,0,1-4.9-12.8,18.1,18.1,0,0,1,4.7-12.8,16.8,16.8,0,0,1,23.8-.3h0c3,3.2,4.4,7.7,4.4,13.5v.7H302.8a10.8,10.8,0,0,0,18.4,7.7,11.1,11.1,0,0,0,2-2.9l5.6,2.7a16,16,0,0,1-6.2,6.7A17.2,17.2,0,0,1,313.4,182.6Z"/>
  <path class="cls-2" d="M346.8,182.1a9.5,9.5,0,0,1-6.9-2.5,9.1,9.1,0,0,1-2.7-7.1V153.6h-5.9v-5.7h5.9V137.6h6.4v10.3h8.3v5.7h-8.3v16.7a6.3,6.3,0,0,0,1.3,4.5,4.1,4.1,0,0,0,3,1.2,4.7,4.7,0,0,0,1.5-.2l1.3-.5,2,5.6A16.1,16.1,0,0,1,346.8,182.1Z"/>
  <path class="cls-2" d="M383.5,172.1a9.3,9.3,0,0,1-3.9,7.4,15.2,15.2,0,0,1-9.6,3,15.5,15.5,0,0,1-8.9-2.7,15.9,15.9,0,0,1-5.6-6.9l5.6-2.4a11,11,0,0,0,3.5,4.7,8.4,8.4,0,0,0,5.2,1.7,8.8,8.8,0,0,0,5.1-1.3,3.7,3.7,0,0,0,2-3c0-2.2-1.7-3.7-4.9-4.7l-5.7-1.5c-6.6-1.7-9.9-4.7-9.9-9.4a9.2,9.2,0,0,1,3.7-7.4,17.1,17.1,0,0,1,17.7-.7,11.2,11.2,0,0,1,5.1,5.7l-5.6,2.4a6.3,6.3,0,0,0-3.2-3.4,10,10,0,0,0-4.9-1.2,8.2,8.2,0,0,0-4.4,1.2,3.6,3.6,0,0,0-2,3c0,1.9,1.9,3.4,5.4,4l5.1,1.3C380.1,163.7,383.5,167.1,383.5,172.1Z"/>
  <polygon class="cls-3" points="117.1 65.5 177 121.2 176.8 67.1 117.1 65.5"/>
  <path class="cls-4" d="M177,67.1H123.8a14,14,0,0,1-14.2-13.8V0Z"/>
  <path class="cls-5" d="M94.2,184.5v-12h28.9v12Zm-40.4-12H82.7v12H53.8Zm29-8.3H53.9V151.3H82.8Zm0-35.1v13.8H53.9V129.1Zm11.4,22.2h28.9v12.9H94.2Zm28.9-8.4H94.2V129.1h28.9ZM42.5,118v77.7h92.1V118Z"/>
</svg>
